<svg width="40" height="40" viewBox="0 0 40 40" fill="none" xmlns="http://www.w3.org/2000/svg">
<rect width="40" height="40" rx="20" fill="#FFC7C7"/>
<path d="M25.7543 21.9999C26.9963 21.9999 28.0032 23.0068 28.0032 24.2488V24.8242C28.0032 25.7185 27.6836 26.5833 27.1021 27.2627C25.5327 29.0962 23.1455 30.0011 20.0001 30.0011C16.8543 30.0011 14.4682 29.0959 12.9019 27.2617C12.3222 26.5827 12.0037 25.7193 12.0037 24.8265V24.2488C12.0037 23.0068 13.0105 21.9999 14.2525 21.9999H25.7543ZM25.7543 23.4999H14.2525C13.8389 23.4999 13.5037 23.8352 13.5037 24.2488V24.8265C13.5037 25.3621 13.6948 25.8802 14.0426 26.2876C15.2959 27.7553 17.2618 28.5011 20.0001 28.5011C22.7384 28.5011 24.706 27.7552 25.9625 26.2873C26.3114 25.8797 26.5032 25.3608 26.5032 24.8242V24.2488C26.5032 23.8352 26.1679 23.4999 25.7543 23.4999ZM20.0001 10.0046C22.7615 10.0046 25.0001 12.2432 25.0001 15.0046C25.0001 17.766 22.7615 20.0046 20.0001 20.0046C17.2387 20.0046 15.0001 17.766 15.0001 15.0046C15.0001 12.2432 17.2387 10.0046 20.0001 10.0046ZM20.0001 11.5046C18.0671 11.5046 16.5001 13.0716 16.5001 15.0046C16.5001 16.9376 18.0671 18.5046 20.0001 18.5046C21.9331 18.5046 23.5001 16.9376 23.5001 15.0046C23.5001 13.0716 21.9331 11.5046 20.0001 11.5046Z" fill="#CC3663"/>
</svg>
